<svg xmlns="http://www.w3.org/2000/svg" xmlns:xlink="http://www.w3.org/1999/xlink" width="160" zoomAndPan="magnify" viewBox="0 0 120 37.5" height="50" preserveAspectRatio="xMidYMid meet" version="1.0"><defs><g/><clipPath id="9e2f7f3501"><path d="M 6 3.699219 L 37 3.699219 L 37 33 L 6 33 Z M 6 3.699219 " clip-rule="nonzero"/></clipPath><clipPath id="00c6a0ee9c"><path d="M 2.550781 31 L 40.296875 31 L 40.296875 36.265625 L 2.550781 36.265625 Z M 2.550781 31 " clip-rule="nonzero"/></clipPath></defs><g fill="#f9f6f7" fill-opacity="1"><g transform="translate(42.22558, 21.638814)"><g><path d="M 10.183594 -12.082031 L 9.335938 -14.996094 L 0.851562 -12.523438 L 0.3125 -14.371094 L -2.601562 -13.523438 L -2.066406 -11.675781 L -3.296875 -11.320312 L -2.445312 -8.402344 L -1.214844 -8.761719 L -0.160156 -5.136719 C 0.609375 -2.496094 3.367188 -0.980469 6.007812 -1.75 L 12.628906 -3.675781 L 10.59375 -10.671875 L 5.28125 -9.125 L 6.066406 -6.4375 L 8.460938 -7.136719 L 8.867188 -5.742188 L 6.46875 -5.046875 L 6.476562 -5.027344 L 5.164062 -4.648438 C 4.128906 -4.34375 3.054688 -4.945312 2.753906 -5.984375 L 1.699219 -9.609375 Z M 10.183594 -12.082031 "/></g></g></g><g fill="#f9f6f7" fill-opacity="1"><g transform="translate(55.134129, 17.940574)"><g><path d="M 4.46875 -14.691406 L 1.476562 -14.171875 L 1.808594 -12.277344 L -1.183594 -11.757812 L 0.832031 -0.144531 L 3.820312 -0.664062 L 3.320312 -3.554688 L 6.3125 -4.074219 L 6.8125 -1.183594 L 9.804688 -1.699219 L 7.789062 -13.316406 L 4.796875 -12.796875 Z M 2.324219 -9.285156 L 5.316406 -9.804688 L 5.789062 -7.082031 L 2.796875 -6.5625 Z M 2.324219 -9.285156 "/></g></g></g><g fill="#f9f6f7" fill-opacity="1"><g transform="translate(65.1839, 16.078586)"><g><path d="M 10.347656 -4.332031 L 12.871094 -4.488281 L 12.375 -12.582031 L 7.59375 -12.292969 L 7.480469 -14.195312 L 4.449219 -14.007812 L 4.566406 -12.105469 L 0.121094 -11.835938 L 0.617188 -3.738281 L 2.03125 -3.824219 L 2.253906 -0.136719 L 5.285156 -0.324219 L 5.058594 -4.007812 L 7.214844 -4.140625 C 8.398438 -0.242188 11.027344 2.382812 13.988281 2.203125 L 13.804688 -0.828125 C 12.59375 -0.753906 11.191406 -2.101562 10.347656 -4.332031 Z M 3.335938 -8.988281 L 9.53125 -9.367188 L 9.65625 -7.332031 L 3.460938 -6.953125 Z M 3.335938 -8.988281 "/></g></g></g><g fill="#f9f6f7" fill-opacity="1"><g transform="translate(78.343985, 15.212954)"><g><path d="M 11.785156 -11.03125 L 1.621094 -11.707031 L 1.421875 -8.679688 L 2.902344 -8.578125 L 2.640625 -4.660156 L 5.6875 -4.457031 L 5.945312 -8.378906 L 9.582031 -8.136719 L 11.15625 -2.304688 L 1.042969 -2.972656 L 0.839844 0.0546875 L 13.984375 0.925781 L 14.183594 -2.101562 Z M 11.785156 -11.03125 "/></g></g></g><g fill="#f9f6f7" fill-opacity="1"><g transform="translate(92.120968, 16.126401)"><g><path d="M 13.710938 -6.273438 L 14.285156 -9.253906 L 3.058594 -11.417969 L 2.484375 -8.433594 L 5.464844 -7.863281 L 5.207031 -6.535156 L 2.226562 -7.109375 L 0.828125 0.160156 L 12.054688 2.320312 L 12.628906 -0.660156 L 4.382812 -2.246094 L 4.632812 -3.554688 L 12.882812 -1.96875 L 13.457031 -4.949219 L 8.1875 -5.960938 L 8.445312 -7.289062 Z M 13.710938 -6.273438 "/></g></g></g><g fill="#f9f6f7" fill-opacity="1"><g transform="translate(104.460211, 18.535106)"><g><path d="M 10.070312 -9.242188 L 9.351562 -6.902344 L 7.167969 -10.132812 L 4.265625 -11.023438 L 0.804688 0.246094 L 3.707031 1.136719 L 6.101562 -6.664062 L 8.289062 -3.4375 L 6.609375 2.027344 L 9.511719 2.917969 L 12.972656 -8.351562 Z M 10.070312 -9.242188 "/></g></g></g><g fill="#f9f6f7" fill-opacity="1"><g transform="translate(62.689977, 25.066598)"><g><path d="M 0.03125 -2.53125 L 0.03125 -3.125 L 2.65625 -3.125 L 2.65625 -2.53125 L 1.6875 -2.53125 L 1.6875 0 L 0.984375 0 L 0.984375 -2.53125 Z M 0.03125 -2.53125 "/></g></g></g><g fill="#f9f6f7" fill-opacity="1"><g transform="translate(65.375278, 25.066598)"><g><path d="M 3.0625 0 L 2.265625 0 L 1.765625 -0.890625 L 1.046875 -0.890625 L 1.046875 0 L 0.34375 0 L 0.34375 -3.125 L 1.703125 -3.125 C 2.109375 -3.125 2.421875 -3.03125 2.640625 -2.84375 C 2.867188 -2.65625 2.984375 -2.390625 2.984375 -2.046875 C 2.984375 -1.804688 2.929688 -1.597656 2.828125 -1.421875 C 2.734375 -1.253906 2.59375 -1.125 2.40625 -1.03125 Z M 1.046875 -2.546875 L 1.046875 -1.484375 L 1.703125 -1.484375 C 1.898438 -1.484375 2.050781 -1.523438 2.15625 -1.609375 C 2.257812 -1.703125 2.3125 -1.835938 2.3125 -2.015625 C 2.3125 -2.191406 2.257812 -2.320312 2.15625 -2.40625 C 2.050781 -2.5 1.898438 -2.546875 1.703125 -2.546875 Z M 1.046875 -2.546875 "/></g></g></g><g fill="#f9f6f7" fill-opacity="1"><g transform="translate(68.610151, 25.066598)"><g><path d="M 3.40625 0 L 2.65625 0 L 2.40625 -0.609375 L 0.953125 -0.609375 L 0.71875 0 L -0.015625 0 L 1.34375 -3.125 L 2.078125 -3.125 Z M 1.6875 -2.390625 L 1.1875 -1.171875 L 2.1875 -1.171875 Z M 1.6875 -2.390625 "/></g></g></g><g fill="#f9f6f7" fill-opacity="1"><g transform="translate(72.001404, 25.066598)"><g><path d="M 1.671875 -3.125 C 1.992188 -3.125 2.28125 -3.054688 2.53125 -2.921875 C 2.78125 -2.796875 2.972656 -2.613281 3.109375 -2.375 C 3.242188 -2.132812 3.3125 -1.863281 3.3125 -1.5625 C 3.3125 -1.257812 3.238281 -0.988281 3.09375 -0.75 C 2.957031 -0.507812 2.757812 -0.320312 2.5 -0.1875 C 2.25 -0.0625 1.960938 0 1.640625 0 L 0.34375 0 L 0.34375 -3.125 Z M 1.6875 -0.59375 C 1.863281 -0.59375 2.019531 -0.632812 2.15625 -0.71875 C 2.289062 -0.800781 2.394531 -0.914062 2.46875 -1.0625 C 2.550781 -1.207031 2.59375 -1.375 2.59375 -1.5625 C 2.59375 -1.75 2.550781 -1.914062 2.46875 -2.0625 C 2.382812 -2.207031 2.269531 -2.320312 2.125 -2.40625 C 1.988281 -2.488281 1.832031 -2.53125 1.65625 -2.53125 L 1.046875 -2.53125 L 1.046875 -0.59375 Z M 1.6875 -0.59375 "/></g></g></g><g fill="#f9f6f7" fill-opacity="1"><g transform="translate(75.437336, 25.066598)"><g><path d="M 0.34375 0 L 0.34375 -3.125 L 1.046875 -3.125 L 1.046875 0 Z M 0.34375 0 "/></g></g></g><g fill="#f9f6f7" fill-opacity="1"><g transform="translate(76.835837, 25.066598)"><g><path d="M 2.609375 -2.15625 C 2.503906 -2.28125 2.378906 -2.378906 2.234375 -2.453125 C 2.085938 -2.523438 1.941406 -2.5625 1.796875 -2.5625 C 1.617188 -2.5625 1.457031 -2.515625 1.3125 -2.421875 C 1.164062 -2.335938 1.050781 -2.222656 0.96875 -2.078125 C 0.882812 -1.929688 0.84375 -1.765625 0.84375 -1.578125 C 0.84375 -1.398438 0.882812 -1.234375 0.96875 -1.078125 C 1.050781 -0.929688 1.164062 -0.8125 1.3125 -0.71875 C 1.457031 -0.632812 1.617188 -0.59375 1.796875 -0.59375 C 1.929688 -0.59375 2.070312 -0.625 2.21875 -0.6875 C 2.363281 -0.757812 2.492188 -0.851562 2.609375 -0.96875 L 3.03125 -0.515625 C 2.863281 -0.335938 2.664062 -0.195312 2.4375 -0.09375 C 2.207031 0 1.984375 0.046875 1.765625 0.046875 C 1.453125 0.046875 1.171875 -0.0195312 0.921875 -0.15625 C 0.671875 -0.300781 0.472656 -0.492188 0.328125 -0.734375 C 0.191406 -0.984375 0.125 -1.265625 0.125 -1.578125 C 0.125 -1.878906 0.195312 -2.148438 0.34375 -2.390625 C 0.488281 -2.628906 0.6875 -2.816406 0.9375 -2.953125 C 1.195312 -3.097656 1.476562 -3.171875 1.78125 -3.171875 C 2.007812 -3.171875 2.234375 -3.125 2.453125 -3.03125 C 2.671875 -2.9375 2.859375 -2.8125 3.015625 -2.65625 Z M 2.609375 -2.15625 "/></g></g></g><g fill="#f9f6f7" fill-opacity="1"><g transform="translate(79.936669, 25.066598)"><g><path d="M 0.34375 0 L 0.34375 -3.125 L 1.046875 -3.125 L 1.046875 0 Z M 0.34375 0 "/></g></g></g><g fill="#f9f6f7" fill-opacity="1"><g transform="translate(81.335171, 25.066598)"><g><path d="M 1.796875 -3.171875 C 2.109375 -3.171875 2.390625 -3.097656 2.640625 -2.953125 C 2.898438 -2.816406 3.101562 -2.625 3.25 -2.375 C 3.40625 -2.132812 3.484375 -1.863281 3.484375 -1.5625 C 3.484375 -1.257812 3.40625 -0.984375 3.25 -0.734375 C 3.101562 -0.492188 2.898438 -0.300781 2.640625 -0.15625 C 2.390625 -0.0195312 2.109375 0.046875 1.796875 0.046875 C 1.484375 0.046875 1.195312 -0.0195312 0.9375 -0.15625 C 0.6875 -0.300781 0.488281 -0.492188 0.34375 -0.734375 C 0.195312 -0.984375 0.125 -1.257812 0.125 -1.5625 C 0.125 -1.863281 0.195312 -2.132812 0.34375 -2.375 C 0.488281 -2.625 0.6875 -2.816406 0.9375 -2.953125 C 1.195312 -3.097656 1.484375 -3.171875 1.796875 -3.171875 Z M 1.8125 -2.5625 C 1.632812 -2.5625 1.472656 -2.515625 1.328125 -2.421875 C 1.179688 -2.335938 1.0625 -2.21875 0.96875 -2.0625 C 0.882812 -1.914062 0.84375 -1.75 0.84375 -1.5625 C 0.84375 -1.382812 0.882812 -1.21875 0.96875 -1.0625 C 1.0625 -0.90625 1.179688 -0.78125 1.328125 -0.6875 C 1.472656 -0.601562 1.632812 -0.5625 1.8125 -0.5625 C 1.976562 -0.5625 2.132812 -0.601562 2.28125 -0.6875 C 2.425781 -0.78125 2.539062 -0.90625 2.625 -1.0625 C 2.707031 -1.21875 2.75 -1.382812 2.75 -1.5625 C 2.75 -1.75 2.707031 -1.914062 2.625 -2.0625 C 2.539062 -2.21875 2.425781 -2.335938 2.28125 -2.421875 C 2.132812 -2.515625 1.976562 -2.5625 1.8125 -2.5625 Z M 1.8125 -2.5625 "/></g></g></g><g fill="#f9f6f7" fill-opacity="1"><g transform="translate(84.936425, 25.066598)"><g><path d="M 2.5 -1.109375 L 2.5 -3.125 L 3.171875 -3.125 L 3.171875 0 L 2.53125 0 L 1.015625 -2.015625 L 1.015625 0 L 0.34375 0 L 0.34375 -3.125 L 0.984375 -3.125 Z M 2.5 -1.109375 "/></g></g></g><g fill="#f9f6f7" fill-opacity="1"><g transform="translate(88.457254, 25.066598)"><g><path d="M 3.40625 0 L 2.65625 0 L 2.40625 -0.609375 L 0.953125 -0.609375 L 0.71875 0 L -0.015625 0 L 1.34375 -3.125 L 2.078125 -3.125 Z M 1.6875 -2.390625 L 1.1875 -1.171875 L 2.1875 -1.171875 Z M 1.6875 -2.390625 "/></g></g></g><g fill="#f9f6f7" fill-opacity="1"><g transform="translate(91.848507, 25.066598)"><g><path d="M 0.34375 0 L 0.34375 -3.125 L 1.046875 -3.125 L 1.046875 -0.609375 L 2.390625 -0.609375 L 2.390625 0 Z M 0.34375 0 "/></g></g></g><g fill="#fcd739" fill-opacity="1"><g transform="translate(41.861855, 36.158909)"><g><path d="M 6.609375 0 L 4.40625 0 L 3.53125 -1.765625 L 2.5 -1.765625 L 2.5 0 L 0.546875 0 L 0.546875 -6.5625 L 3.609375 -6.5625 C 4.492188 -6.5625 5.175781 -6.359375 5.65625 -5.953125 C 6.144531 -5.546875 6.390625 -4.972656 6.390625 -4.234375 C 6.390625 -3.753906 6.289062 -3.335938 6.09375 -2.984375 C 5.90625 -2.628906 5.632812 -2.347656 5.28125 -2.140625 Z M 2.5 -5.0625 L 2.5 -3.265625 L 3.609375 -3.265625 C 3.898438 -3.265625 4.125 -3.34375 4.28125 -3.5 C 4.445312 -3.65625 4.53125 -3.878906 4.53125 -4.171875 C 4.53125 -4.460938 4.445312 -4.679688 4.28125 -4.828125 C 4.125 -4.984375 3.898438 -5.0625 3.609375 -5.0625 Z M 2.5 -5.0625 "/></g></g></g><g fill="#fcd739" fill-opacity="1"><g transform="translate(48.648867, 36.158909)"><g><path d="M 0.546875 0 L 0.546875 -6.5625 L 5.921875 -6.5625 L 5.921875 -5.0625 L 2.5 -5.0625 L 2.5 -4.03125 L 5.59375 -4.03125 L 5.59375 -2.53125 L 2.5 -2.53125 L 2.5 -1.5 L 6.015625 -1.5 L 6.015625 0 Z M 0.546875 0 "/></g></g></g><g fill="#fcd739" fill-opacity="1"><g transform="translate(55.042703, 36.158909)"><g><path d="M 5.265625 -4.453125 C 4.921875 -4.648438 4.535156 -4.820312 4.109375 -4.96875 C 3.691406 -5.113281 3.351562 -5.1875 3.09375 -5.1875 C 2.914062 -5.1875 2.78125 -5.148438 2.6875 -5.078125 C 2.59375 -5.015625 2.546875 -4.921875 2.546875 -4.796875 C 2.546875 -4.628906 2.640625 -4.492188 2.828125 -4.390625 C 3.015625 -4.296875 3.3125 -4.191406 3.71875 -4.078125 C 4.175781 -3.953125 4.554688 -3.820312 4.859375 -3.6875 C 5.160156 -3.550781 5.421875 -3.34375 5.640625 -3.0625 C 5.859375 -2.789062 5.96875 -2.429688 5.96875 -1.984375 C 5.96875 -1.523438 5.847656 -1.140625 5.609375 -0.828125 C 5.367188 -0.515625 5.046875 -0.28125 4.640625 -0.125 C 4.234375 0.03125 3.773438 0.109375 3.265625 0.109375 C 2.703125 0.109375 2.140625 0.015625 1.578125 -0.171875 C 1.015625 -0.359375 0.523438 -0.617188 0.109375 -0.953125 L 0.84375 -2.4375 C 1.175781 -2.144531 1.578125 -1.898438 2.046875 -1.703125 C 2.523438 -1.503906 2.9375 -1.40625 3.28125 -1.40625 C 3.5 -1.40625 3.664062 -1.445312 3.78125 -1.53125 C 3.894531 -1.613281 3.953125 -1.726562 3.953125 -1.875 C 3.953125 -2.0625 3.851562 -2.203125 3.65625 -2.296875 C 3.46875 -2.390625 3.171875 -2.492188 2.765625 -2.609375 C 2.316406 -2.722656 1.941406 -2.84375 1.640625 -2.96875 C 1.335938 -3.09375 1.078125 -3.289062 0.859375 -3.5625 C 0.640625 -3.832031 0.53125 -4.1875 0.53125 -4.625 C 0.53125 -5.050781 0.640625 -5.421875 0.859375 -5.734375 C 1.085938 -6.046875 1.40625 -6.285156 1.8125 -6.453125 C 2.226562 -6.617188 2.707031 -6.703125 3.25 -6.703125 C 3.738281 -6.703125 4.226562 -6.632812 4.71875 -6.5 C 5.207031 -6.363281 5.628906 -6.175781 5.984375 -5.9375 Z M 5.265625 -4.453125 "/></g></g></g><g fill="#fcd739" fill-opacity="1"><g transform="translate(61.174415, 36.158909)"><g><path d="M 0.0625 -5 L 0.0625 -6.5625 L 5.828125 -6.5625 L 5.828125 -5 L 3.90625 -5 L 3.90625 0 L 1.953125 0 L 1.953125 -5 Z M 0.0625 -5 "/></g></g></g><g fill="#fcd739" fill-opacity="1"><g transform="translate(67.053374, 36.158909)"><g><path d="M 7.4375 0 L 5.359375 0 L 4.96875 -1.046875 L 2.328125 -1.046875 L 1.921875 0 L -0.078125 0 L 2.71875 -6.5625 L 4.71875 -6.5625 Z M 3.671875 -4.609375 L 2.859375 -2.46875 L 4.453125 -2.46875 Z M 3.671875 -4.609375 "/></g></g></g><g fill="#fcd739" fill-opacity="1"><g transform="translate(74.411434, 36.158909)"><g><path d="M 2.390625 -2.71875 C 2.390625 -2.34375 2.492188 -2.039062 2.703125 -1.8125 C 2.921875 -1.59375 3.191406 -1.484375 3.515625 -1.484375 C 3.828125 -1.484375 4.082031 -1.59375 4.28125 -1.8125 C 4.476562 -2.039062 4.578125 -2.34375 4.578125 -2.71875 L 4.578125 -6.5625 L 6.53125 -6.5625 L 6.53125 -2.71875 C 6.53125 -2.144531 6.40625 -1.644531 6.15625 -1.21875 C 5.90625 -0.789062 5.550781 -0.457031 5.09375 -0.21875 C 4.644531 0.0078125 4.117188 0.125 3.515625 0.125 C 2.898438 0.125 2.359375 0.0078125 1.890625 -0.21875 C 1.429688 -0.457031 1.078125 -0.789062 0.828125 -1.21875 C 0.578125 -1.644531 0.453125 -2.144531 0.453125 -2.71875 L 0.453125 -6.5625 L 2.390625 -6.5625 Z M 2.390625 -2.71875 "/></g></g></g><g fill="#fcd739" fill-opacity="1"><g transform="translate(81.385673, 36.158909)"><g><path d="M 6.609375 0 L 4.40625 0 L 3.53125 -1.765625 L 2.5 -1.765625 L 2.5 0 L 0.546875 0 L 0.546875 -6.5625 L 3.609375 -6.5625 C 4.492188 -6.5625 5.175781 -6.359375 5.65625 -5.953125 C 6.144531 -5.546875 6.390625 -4.972656 6.390625 -4.234375 C 6.390625 -3.753906 6.289062 -3.335938 6.09375 -2.984375 C 5.90625 -2.628906 5.632812 -2.347656 5.28125 -2.140625 Z M 2.5 -5.0625 L 2.5 -3.265625 L 3.609375 -3.265625 C 3.898438 -3.265625 4.125 -3.34375 4.28125 -3.5 C 4.445312 -3.65625 4.53125 -3.878906 4.53125 -4.171875 C 4.53125 -4.460938 4.445312 -4.679688 4.28125 -4.828125 C 4.125 -4.984375 3.898438 -5.0625 3.609375 -5.0625 Z M 2.5 -5.0625 "/></g></g></g><g fill="#fcd739" fill-opacity="1"><g transform="translate(88.172686, 36.158909)"><g><path d="M 7.4375 0 L 5.359375 0 L 4.96875 -1.046875 L 2.328125 -1.046875 L 1.921875 0 L -0.078125 0 L 2.71875 -6.5625 L 4.71875 -6.5625 Z M 3.671875 -4.609375 L 2.859375 -2.46875 L 4.453125 -2.46875 Z M 3.671875 -4.609375 "/></g></g></g><g fill="#fcd739" fill-opacity="1"><g transform="translate(95.530746, 36.158909)"><g><path d="M 5 -2.90625 L 5 -6.5625 L 6.78125 -6.5625 L 6.78125 0 L 5.125 0 L 2.34375 -3.65625 L 2.34375 0 L 0.546875 0 L 0.546875 -6.5625 L 2.21875 -6.5625 Z M 5 -2.90625 "/></g></g></g><g fill="#fcd739" fill-opacity="1"><g transform="translate(102.860717, 36.158909)"><g><path d="M 0.0625 -5 L 0.0625 -6.5625 L 5.828125 -6.5625 L 5.828125 -5 L 3.90625 -5 L 3.90625 0 L 1.953125 0 L 1.953125 -5 Z M 0.0625 -5 "/></g></g></g><g fill="#fcd739" fill-opacity="1"><g transform="translate(108.739676, 36.158909)"><g><path d="M 0.546875 0 L 0.546875 -6.5625 L 5.921875 -6.5625 L 5.921875 -5.0625 L 2.5 -5.0625 L 2.5 -4.03125 L 5.59375 -4.03125 L 5.59375 -2.53125 L 2.5 -2.53125 L 2.5 -1.5 L 6.015625 -1.5 L 6.015625 0 Z M 0.546875 0 "/></g></g></g><g clip-path="url(#9e2f7f3501)"><path fill="#bc1823" d="M 21.710938 18.339844 L 36.136719 18.339844 C 36.136719 16.242188 35.695312 14.246094 34.898438 12.441406 L 25.859375 11.515625 L 34.449219 11.515625 C 31.996094 6.871094 27.121094 3.707031 21.503906 3.707031 C 13.421875 3.707031 6.871094 10.257812 6.871094 18.339844 C 6.871094 19.558594 7.023438 20.746094 7.304688 21.878906 L 16.578125 21.878906 L 7.566406 22.804688 C 9.457031 28.699219 14.980469 32.96875 21.503906 32.96875 C 29.085938 32.96875 35.324219 27.199219 36.0625 19.8125 L 21.710938 18.339844 " fill-opacity="1" fill-rule="nonzero"/></g><path fill="#11100e" d="M 21.503906 15.703125 C 15.449219 15.703125 10.097656 14.246094 6.871094 12.023438 C 8.019531 15.417969 14.132812 18.011719 21.503906 18.011719 C 28.875 18.011719 34.992188 15.417969 36.136719 12.023438 C 32.914062 14.246094 27.5625 15.703125 21.503906 15.703125 " fill-opacity="1" fill-rule="nonzero"/><path fill="#11100e" d="M 33.488281 18.84375 L 9.519531 18.84375 L 8.320312 17.183594 L 34.6875 17.183594 L 33.488281 18.84375 " fill-opacity="1" fill-rule="nonzero"/><path fill="#11100e" d="M 30.074219 21.519531 L 12.933594 21.519531 L 12.132812 20.339844 L 30.875 20.339844 L 30.074219 21.519531 " fill-opacity="1" fill-rule="nonzero"/><path fill="#11100e" d="M 14.210938 32.289062 L 15.839844 32.289062 L 15.839844 18.011719 L 14.210938 18.011719 L 14.210938 32.289062 " fill-opacity="1" fill-rule="nonzero"/><path fill="#11100e" d="M 27.167969 32.289062 L 28.796875 32.289062 L 28.796875 18.011719 L 27.167969 18.011719 L 27.167969 32.289062 " fill-opacity="1" fill-rule="nonzero"/><path fill="#11100e" d="M 22.359375 21.144531 L 20.648438 21.144531 L 20.648438 17.515625 L 22.359375 17.515625 L 22.359375 21.144531 " fill-opacity="1" fill-rule="nonzero"/><g clip-path="url(#00c6a0ee9c)"><path fill="#11100e" d="M 21.503906 33.089844 C 28.660156 33.089844 35.246094 34.199219 40.457031 36.0625 C 36.371094 33.109375 29.40625 31.167969 21.503906 31.167969 C 13.601562 31.167969 6.636719 33.109375 2.550781 36.0625 C 7.765625 34.199219 14.347656 33.089844 21.503906 33.089844 " fill-opacity="1" fill-rule="nonzero"/></g><path fill="#11100e" d="M 16.359375 32.816406 L 13.691406 32.816406 L 13.691406 29.023438 L 16.359375 29.023438 L 16.359375 32.816406 " fill-opacity="1" fill-rule="nonzero"/><path fill="#11100e" d="M 29.316406 32.414062 L 26.648438 32.414062 L 26.648438 29.023438 L 29.316406 29.023438 L 29.316406 32.414062 " fill-opacity="1" fill-rule="nonzero"/></svg>